<svg width="150" height="150" viewBox="0 0 150 150" fill="none" xmlns="http://www.w3.org/2000/svg">
<rect width="150" height="150" rx="75" fill="#818CF8"/>
<mask id="path-2-outside-1_15_19" maskUnits="userSpaceOnUse" x="47" y="34" width="59" height="94" fill="black">
<rect fill="white" x="47" y="34" width="59" height="94"/>
<path d="M101.864 59.4602L100.926 62.1875H50.5568L51.4091 59.4602H101.864ZM88.6534 125L50.5568 83.3239V81.1932H63.5114C68.7386 81.1932 73.1989 80.3977 76.892 78.8068C80.6136 77.2159 83.4545 74.9148 85.4148 71.9034C87.4034 68.8636 88.3977 65.1989 88.3977 60.9091C88.3977 54.6307 86.3097 49.6591 82.1335 45.9943C77.9574 42.3011 72.6023 40.4545 66.0682 40.4545H50.5568L51.4091 37.7273H66.0682C70.9545 37.7273 75.2727 38.679 79.0227 40.5824C82.8011 42.4858 85.7557 45.1705 87.8864 48.6364C90.0455 52.1023 91.125 56.1932 91.125 60.9091C91.125 65.6818 90.0028 69.7869 87.7585 73.2244C85.5426 76.6619 82.3608 79.304 78.2131 81.1506C74.0938 82.9972 69.1932 83.9205 63.5114 83.9205H54.8182L91.8068 124.489V125H88.6534ZM102.801 37.7273L101.864 40.4545H53.2841L53.625 37.7273H102.801Z"/>
</mask>
<path d="M101.864 59.4602L100.926 62.1875H50.5568L51.4091 59.4602H101.864ZM88.6534 125L50.5568 83.3239V81.1932H63.5114C68.7386 81.1932 73.1989 80.3977 76.892 78.8068C80.6136 77.2159 83.4545 74.9148 85.4148 71.9034C87.4034 68.8636 88.3977 65.1989 88.3977 60.9091C88.3977 54.6307 86.3097 49.6591 82.1335 45.9943C77.9574 42.3011 72.6023 40.4545 66.0682 40.4545H50.5568L51.4091 37.7273H66.0682C70.9545 37.7273 75.2727 38.679 79.0227 40.5824C82.8011 42.4858 85.7557 45.1705 87.8864 48.6364C90.0455 52.1023 91.125 56.1932 91.125 60.9091C91.125 65.6818 90.0028 69.7869 87.7585 73.2244C85.5426 76.6619 82.3608 79.304 78.2131 81.1506C74.0938 82.9972 69.1932 83.9205 63.5114 83.9205H54.8182L91.8068 124.489V125H88.6534ZM102.801 37.7273L101.864 40.4545H53.2841L53.625 37.7273H102.801Z" fill="black"/>
<path d="M101.864 59.4602L104.701 60.4355C105.016 59.5188 104.869 58.5064 104.306 57.7175C103.742 56.9285 102.833 56.4602 101.864 56.4602V59.4602ZM100.926 62.1875V65.1875C102.207 65.1875 103.347 64.3741 103.763 63.1627L100.926 62.1875ZM50.5568 62.1875L47.6934 61.2927C47.4087 62.2036 47.5744 63.1956 48.1397 63.9645C48.705 64.7334 49.6025 65.1875 50.5568 65.1875V62.1875ZM51.4091 59.4602V56.4602C50.0969 56.4602 48.937 57.313 48.5457 58.5654L51.4091 59.4602ZM88.6534 125L86.4391 127.024C87.0075 127.646 87.811 128 88.6534 128V125ZM50.5568 83.3239H47.5568C47.5568 84.073 47.8371 84.795 48.3425 85.348L50.5568 83.3239ZM50.5568 81.1932V78.1932C48.9 78.1932 47.5568 79.5363 47.5568 81.1932H50.5568ZM76.892 78.8068L75.7128 76.0483L75.7052 76.0516L76.892 78.8068ZM85.4148 71.9034L82.9043 70.261L82.9005 70.2668L85.4148 71.9034ZM82.1335 45.9943L80.1461 48.2416L80.1548 48.2492L82.1335 45.9943ZM50.5568 40.4545L47.6934 39.5597C47.4087 40.4706 47.5744 41.4626 48.1397 42.2315C48.705 43.0005 49.6025 43.4545 50.5568 43.4545V40.4545ZM51.4091 37.7273V34.7273C50.0969 34.7273 48.937 35.58 48.5457 36.8324L51.4091 37.7273ZM79.0227 40.5824L77.6649 43.2575L77.673 43.2616L79.0227 40.5824ZM87.8864 48.6364L85.3307 50.2075C85.3338 50.2125 85.3369 50.2176 85.34 50.2226L87.8864 48.6364ZM87.7585 73.2244L85.2465 71.5844C85.2433 71.5892 85.2402 71.5941 85.237 71.599L87.7585 73.2244ZM78.2131 81.1506L76.9929 78.4099L76.9859 78.413L78.2131 81.1506ZM54.8182 83.9205V80.9205C53.6299 80.9205 52.5537 81.6218 52.0738 82.7088C51.5938 83.7958 51.8007 85.0637 52.6013 85.9417L54.8182 83.9205ZM91.8068 124.489H94.8068C94.8068 123.741 94.5275 123.02 94.0237 122.467L91.8068 124.489ZM91.8068 125V128C93.4637 128 94.8068 126.657 94.8068 125H91.8068ZM102.801 37.7273L105.638 38.7025C105.953 37.7859 105.806 36.7735 105.243 35.9845C104.68 35.1956 103.77 34.7273 102.801 34.7273V37.7273ZM101.864 40.4545V43.4545C103.145 43.4545 104.284 42.6412 104.701 41.4298L101.864 40.4545ZM53.2841 40.4545L50.3073 40.0824C50.2005 40.9363 50.4656 41.7949 51.0351 42.4399C51.6045 43.085 52.4236 43.4545 53.2841 43.4545V40.4545ZM53.625 37.7273V34.7273C52.112 34.7273 50.8358 35.8539 50.6482 37.3552L53.625 37.7273ZM99.0266 58.485L98.0891 61.2123L103.763 63.1627L104.701 60.4355L99.0266 58.485ZM100.926 59.1875H50.5568V65.1875H100.926V59.1875ZM53.4203 63.0823L54.2725 60.355L48.5457 58.5654L47.6934 61.2927L53.4203 63.0823ZM51.4091 62.4602H101.864V56.4602H51.4091V62.4602ZM90.8677 122.976L52.7711 81.2998L48.3425 85.348L86.4391 127.024L90.8677 122.976ZM53.5568 83.3239V81.1932H47.5568V83.3239H53.5568ZM50.5568 84.1932H63.5114V78.1932H50.5568V84.1932ZM63.5114 84.1932C69.0298 84.1932 73.9166 83.355 78.0789 81.5621L75.7052 76.0516C72.4811 77.4404 68.4474 78.1932 63.5114 78.1932V84.1932ZM78.0713 81.5653C82.2677 79.7715 85.6047 77.1107 87.929 73.54L82.9005 70.2668C81.3044 72.7189 78.9596 74.6604 75.7128 76.0483L78.0713 81.5653ZM87.9253 73.5458C90.2874 69.935 91.3977 65.6748 91.3977 60.9091H85.3977C85.3977 64.7229 84.5194 67.7922 82.9043 70.261L87.9253 73.5458ZM91.3977 60.9091C91.3977 53.8921 89.0259 48.0514 84.1123 43.7394L80.1548 48.2492C83.5934 51.2668 85.3977 55.3692 85.3977 60.9091H91.3977ZM84.1209 43.747C79.3041 39.4872 73.201 37.4545 66.0682 37.4545V43.4545C72.0035 43.4545 76.6107 45.115 80.1461 48.2416L84.1209 43.747ZM66.0682 37.4545H50.5568V43.4545H66.0682V37.4545ZM53.4203 41.3494L54.2725 38.6221L48.5457 36.8324L47.6934 39.5597L53.4203 41.3494ZM51.4091 40.7273H66.0682V34.7273H51.4091V40.7273ZM66.0682 40.7273C70.5591 40.7273 74.3989 41.5998 77.6649 43.2575L80.3806 37.9073C76.1465 35.7582 71.35 34.7273 66.0682 34.7273V40.7273ZM77.673 43.2616C80.9753 44.9251 83.5034 47.2351 85.3307 50.2075L90.4421 47.0652C88.008 43.1058 84.627 40.0464 80.3724 37.9031L77.673 43.2616ZM85.34 50.2226C87.159 53.1426 88.125 56.6653 88.125 60.9091H94.125C94.125 55.721 92.9319 51.062 90.4327 47.0501L85.34 50.2226ZM88.125 60.9091C88.125 65.1962 87.1233 68.7098 85.2465 71.5844L90.2705 74.8645C92.8824 70.8641 94.125 66.1674 94.125 60.9091H88.125ZM85.237 71.599C83.3715 74.493 80.6685 76.7735 76.9929 78.4099L79.4332 83.8912C84.0531 81.8344 87.7138 78.8309 90.28 74.8499L85.237 71.599ZM76.9859 78.413C73.3387 80.048 68.8761 80.9205 63.5114 80.9205V86.9205C69.5103 86.9205 74.8488 85.9463 79.4402 83.8881L76.9859 78.413ZM63.5114 80.9205H54.8182V86.9205H63.5114V80.9205ZM52.6013 85.9417L89.59 126.51L94.0237 122.467L57.035 81.8992L52.6013 85.9417ZM88.8068 124.489V125H94.8068V124.489H88.8068ZM91.8068 122H88.6534V128H91.8068V122ZM99.9641 36.752L99.0266 39.4793L104.701 41.4298L105.638 38.7025L99.9641 36.752ZM101.864 37.4545H53.2841V43.4545H101.864V37.4545ZM56.2609 40.8266L56.6018 38.0994L50.6482 37.3552L50.3073 40.0824L56.2609 40.8266ZM53.625 40.7273H102.801V34.7273H53.625V40.7273Z" fill="black" mask="url(#path-2-outside-1_15_19)"/>
</svg>
