<svg width="50" height="35" viewBox="0 0 50 35" fill="none" xmlns="http://www.w3.org/2000/svg">
<g id="Sycing Icon">
<g id="Union">
<mask id="path-1-inside-1_8_12" fill="white">
<path d="M27 0C33.6274 0 39 5.37258 39 12C39 12.0039 38.999 12.0078 38.999 12.0117C45.1188 12.273 50 17.3159 50 23.5C50 29.6837 45.1193 34.7255 39 34.9873V35H10C4.47715 35 0 30.5228 0 25C0 20.8154 2.57082 17.2326 6.21875 15.7412C6.07622 15.1845 6 14.6012 6 14C6 10.134 9.13401 7 13 7C14.0097 7 14.9689 7.21487 15.8359 7.59961C17.5913 3.1498 21.9264 0 27 0Z"/>
</mask>
<path d="M38.999 12.0117L36.999 12.0098L36.9972 13.9281L38.9137 14.0099L38.999 12.0117ZM39 34.9873L38.9145 32.9891L37 33.071V34.9873H39ZM39 35V37H41V35H39ZM6.21875 15.7412L6.97558 17.5925L8.58839 16.9331L8.15627 15.2452L6.21875 15.7412ZM15.8359 7.59961L15.0247 9.42771L16.9311 10.2736L17.6964 8.33352L15.8359 7.59961ZM27 0V2C32.5228 2 37 6.47715 37 12H39H41C41 4.26801 34.732 -2 27 -2V0ZM39 12H37C37 11.9592 37.0013 11.923 37.0029 11.8927C37.0046 11.8624 37.0067 11.8366 37.0085 11.8168C37.0104 11.7972 37.0121 11.7815 37.0132 11.7722C37.0138 11.7675 37.0142 11.7637 37.0145 11.7614C37.0148 11.7594 37.015 11.7577 37.0149 11.7582C37.0149 11.7583 37.0148 11.7589 37.0147 11.7595C37.0147 11.7602 37.0145 11.7613 37.0144 11.7627C37.014 11.7653 37.0135 11.7695 37.0129 11.7747C37.0117 11.7848 37.0099 11.8013 37.0079 11.8217C37.006 11.8423 37.0038 11.8689 37.0021 11.9C37.0004 11.9312 36.9991 11.9681 36.999 12.0098L38.999 12.0117L40.999 12.0136C40.999 12.0543 40.9977 12.0903 40.996 12.1205C40.9944 12.1506 40.9923 12.1762 40.9904 12.1958C40.9886 12.2153 40.9868 12.2308 40.9858 12.24C40.9852 12.2447 40.9848 12.2484 40.9845 12.2505C40.9843 12.2524 40.9841 12.2541 40.9841 12.2535C40.9841 12.2534 40.9842 12.2528 40.9843 12.2521C40.9844 12.2513 40.9845 12.2502 40.9847 12.2488C40.985 12.2461 40.9856 12.2418 40.9862 12.2366C40.9874 12.2263 40.9893 12.2096 40.9912 12.189C40.9931 12.1683 40.9953 12.1415 40.997 12.1103C40.9987 12.079 41 12.0418 41 12H39ZM38.999 12.0117L38.9137 14.0099C43.9679 14.2257 48 18.3922 48 23.5H50H52C52 16.2397 46.2696 10.3203 39.0843 10.0135L38.999 12.0117ZM50 23.5H48C48 28.6073 43.9685 32.7729 38.9145 32.9891L39 34.9873L39.0855 36.9855C46.27 36.6781 52 30.7601 52 23.5H50ZM39 34.9873H37V35H39H41V34.9873H39ZM39 35V33H10V35V37H39V35ZM10 35V33C5.58172 33 2 29.4183 2 25H0H-2C-2 31.6274 3.37258 37 10 37V35ZM0 25H2C2 21.656 4.05301 18.7873 6.97558 17.5925L6.21875 15.7412L5.46192 13.8899C1.08863 15.6778 -2 19.9749 -2 25H0ZM6.21875 15.7412L8.15627 15.2452C8.05462 14.8482 8 14.4314 8 14H6H4C4 14.7709 4.09782 15.5208 4.28124 16.2372L6.21875 15.7412ZM6 14H8C8 11.2386 10.2386 9 13 9V7V5C8.02944 5 4 9.02944 4 14H6ZM13 7V9C13.7232 9 14.4067 9.15344 15.0247 9.42771L15.8359 7.59961L16.6471 5.77151C15.5312 5.2763 14.2961 5 13 5V7ZM15.8359 7.59961L17.6964 8.33352C19.1609 4.62098 22.7761 2 27 2V0V-2C21.0768 -2 16.0216 1.67861 13.9755 6.8657L15.8359 7.59961Z" fill="#0088FF" mask="url(#path-1-inside-1_8_12)"/>
</g>
<path id="Loading" d="M26.7254 27.504L26.8925 27.9752C27.0542 27.9178 27.1752 27.7816 27.2131 27.6142C27.2509 27.4468 27.2002 27.2718 27.0789 27.1504L26.7254 27.504ZM20.4615 26.2244L20.108 26.578L20.108 26.578L20.4615 26.2244ZM19.182 19.9606L19.5355 19.607C19.4142 19.4857 19.2391 19.4351 19.0718 19.4729C18.9044 19.5107 18.7681 19.6317 18.7107 19.7934L19.182 19.9606ZM19.9795 20.7581L20.4635 20.8838C20.508 20.7122 20.4584 20.5299 20.3331 20.4046L19.9795 20.7581ZM21.1686 25.5173L20.8151 25.8709L20.8151 25.8709L21.1686 25.5173ZM25.9278 26.7064L26.2813 26.3529C26.156 26.2275 25.9737 26.1779 25.8022 26.2224L25.9278 26.7064ZM29.6539 17.032L30.0075 16.6785L30.0075 16.6785L29.6539 17.032ZM30.5212 24.2288L30.1677 24.5823C30.2796 24.6942 30.4378 24.7465 30.5944 24.7234C30.7509 24.7003 30.8872 24.6044 30.962 24.4649L30.5212 24.2288ZM29.7782 23.4858L29.3259 23.2727C29.236 23.4635 29.2755 23.6902 29.4247 23.8393L29.7782 23.4858ZM28.9468 17.7391L29.3004 17.3856L29.3004 17.3856L28.9468 17.7391ZM23.2002 16.9077L22.8466 17.2613C22.9958 17.4104 23.2225 17.4499 23.4133 17.3601L23.2002 16.9077ZM22.4572 16.1647L22.221 15.724C22.0816 15.7987 21.9857 15.9351 21.9625 16.0916C21.9394 16.2481 21.9917 16.4064 22.1036 16.5183L22.4572 16.1647ZM26.7254 27.504L26.5582 27.0327C24.5323 27.7514 22.3053 27.3611 20.8151 25.8709L20.4615 26.2244L20.108 26.578C21.9038 28.3738 24.5492 28.8065 26.8925 27.9752L26.7254 27.504ZM20.4615 26.2244L20.8151 25.8709C19.3249 24.3807 18.9345 22.1536 19.6532 20.1277L19.182 19.9606L18.7107 19.7934C17.8795 22.1367 18.3121 24.7821 20.108 26.578L20.4615 26.2244ZM19.182 19.9606L18.8284 20.3141L19.626 21.1117L19.9795 20.7581L20.3331 20.4046L19.5355 19.607L19.182 19.9606ZM19.9795 20.7581L19.4956 20.6325C19.0088 22.5075 19.4523 24.5081 20.8151 25.8709L21.1686 25.5173L21.5222 25.1638C20.4383 24.0798 20.0553 22.456 20.4635 20.8838L19.9795 20.7581ZM21.1686 25.5173L20.8151 25.8709C22.1778 27.2336 24.1785 27.6771 26.0534 27.1904L25.9278 26.7064L25.8022 26.2224C24.2299 26.6306 22.6061 26.2477 21.5222 25.1638L21.1686 25.5173ZM25.9278 26.7064L25.5742 27.06L26.3718 27.8575L26.7254 27.504L27.0789 27.1504L26.2813 26.3529L25.9278 26.7064ZM29.6539 17.032L29.3004 17.3856C31.0061 19.0913 31.2725 21.7678 30.0805 23.9926L30.5212 24.2288L30.962 24.4649C32.3339 21.904 32.0652 18.7362 30.0075 16.6785L29.6539 17.032ZM30.5212 24.2288L30.8748 23.8752L30.1318 23.1322L29.7782 23.4858L29.4247 23.8393L30.1677 24.5823L30.5212 24.2288ZM29.7782 23.4858L30.2305 23.6988C31.2447 21.5459 30.9282 19.0134 29.3004 17.3856L28.9468 17.7391L28.5933 18.0927C29.8866 19.3861 30.1831 21.453 29.3259 23.2727L29.7782 23.4858ZM28.9468 17.7391L29.3004 17.3856C27.6726 15.7578 25.14 15.4412 22.9871 16.4554L23.2002 16.9077L23.4133 17.3601C25.2329 16.5028 27.2999 16.7993 28.5933 18.0927L28.9468 17.7391ZM23.2002 16.9077L23.5537 16.5542L22.8107 15.8112L22.4572 16.1647L22.1036 16.5183L22.8466 17.2613L23.2002 16.9077ZM22.4572 16.1647L22.6933 16.6055C24.9182 15.4135 27.5946 15.6798 29.3004 17.3856L29.6539 17.032L30.0075 16.6785C27.9498 14.6208 24.7819 14.352 22.221 15.724L22.4572 16.1647Z" fill="#0088FF"/>
</g>
</svg>
