<svg width="50" height="37" viewBox="0 0 50 37" fill="none" xmlns="http://www.w3.org/2000/svg">
<g id="UnSync Error Icon ">
<g id="UnSync Icon">
<g id="Subtract">
<mask id="path-1-inside-1_8_30" fill="white">
<path d="M27 0C33.6274 0 39 5.37258 39 12C39 12.0039 38.999 12.0078 38.999 12.0117C45.1188 12.273 50 17.3159 50 23.5C50 26.4534 48.8846 29.1446 47.0547 31.1807V27.6299C47.659 26.3809 48 24.9805 48 23.5C48 18.3923 43.9681 14.2258 38.9141 14.0098C37.8429 13.964 36.998 13.0819 36.999 12.0098C36.999 12.0014 36.9989 11.9933 36.999 11.9854C36.9911 6.46924 32.518 2 27 2C22.7761 2 19.1608 4.62144 17.6963 8.33398C17.4963 8.84073 17.0979 9.24371 16.5938 9.4502C16.0895 9.6567 15.5225 9.64877 15.0244 9.42773C14.4064 9.15354 13.7231 9 13 9C10.2386 9 8 11.2386 8 14C8 14.4314 8.05462 14.8481 8.15625 15.2451C8.40393 16.2126 7.89999 17.2149 6.97559 17.5928C4.05307 18.7876 2 21.656 2 25C2 29.4183 5.58172 33 10 33H38.7998C38.8377 32.9962 38.8756 32.9909 38.9141 32.9893C38.9611 32.9872 39.0079 32.9822 39.0547 32.9795V34.9834C39.0364 34.9843 39.0183 34.9865 39 34.9873V35H10C4.47715 35 0 30.5228 0 25C0 20.8154 2.57082 17.2326 6.21875 15.7412C6.07622 15.1845 6 14.6012 6 14C6 10.134 9.13401 7 13 7C14.0097 7 14.9689 7.21487 15.8359 7.59961C17.5913 3.1498 21.9264 0 27 0Z"/>
</mask>
<path d="M38.999 12.0117L37.999 12.0108C37.9985 12.5468 38.4208 12.9879 38.9564 13.0108L38.999 12.0117ZM47.0547 31.1807H46.0547C46.0547 31.5948 46.31 31.9662 46.6967 32.1144C47.0835 32.2627 47.5216 32.1572 47.7984 31.8491L47.0547 31.1807ZM47.0547 27.6299L46.1545 27.1944C46.0888 27.3301 46.0547 27.479 46.0547 27.6299H47.0547ZM38.9141 14.0098L38.9568 13.0107L38.9567 13.0107L38.9141 14.0098ZM36.999 12.0098L35.999 12.0088V12.0088L36.999 12.0098ZM36.999 11.9854L37.9989 11.9984C37.999 11.9936 37.999 11.9887 37.999 11.9839L36.999 11.9854ZM17.6963 8.33398L18.6264 8.70116L18.6265 8.70094L17.6963 8.33398ZM16.5938 9.4502L16.9727 10.3756L16.9727 10.3756L16.5938 9.4502ZM15.0244 9.42773L15.43 8.51369L15.43 8.51366L15.0244 9.42773ZM8.15625 15.2451L7.18749 15.4931L7.18749 15.4931L8.15625 15.2451ZM6.97559 17.5928L6.59717 16.6671L6.59716 16.6671L6.97559 17.5928ZM38.7998 33V34C38.833 34 38.8662 33.9983 38.8992 33.995L38.7998 33ZM38.9141 32.9893L38.8713 31.9902L38.8711 31.9902L38.9141 32.9893ZM39.0547 32.9795H40.0547C40.0547 32.7043 39.9413 32.4413 39.7412 32.2524C39.5411 32.0635 39.272 31.9653 38.9973 31.9811L39.0547 32.9795ZM39.0547 34.9834L39.1021 35.9823C39.6354 35.9569 40.0547 35.5172 40.0547 34.9834H39.0547ZM39 34.9873L38.9573 33.9882C38.4221 34.0111 38 34.4516 38 34.9873H39ZM39 35V36C39.5523 36 40 35.5523 40 35H39ZM6.21875 15.7412L6.59717 16.6668C7.05937 16.4779 7.31135 15.9769 7.18751 15.4932L6.21875 15.7412ZM15.8359 7.59961L15.4303 8.51366C15.6794 8.62418 15.9628 8.62828 16.2149 8.52501C16.4671 8.42174 16.6662 8.22004 16.7662 7.96657L15.8359 7.59961ZM27 0V1C33.0751 1 38 5.92487 38 12H39H40C40 4.8203 34.1797 -1 27 -1V0ZM39 12H38C38 11.9798 38.0006 11.962 38.0014 11.9471C38.0023 11.9322 38.0033 11.9195 38.0042 11.9099C38.0051 11.9003 38.0059 11.8927 38.0065 11.8883C38.0069 11.8843 38.0073 11.881 38.0072 11.8821C38.0072 11.8821 38.007 11.8833 38.0069 11.8846C38.0067 11.8861 38.0064 11.8883 38.0061 11.891C38.0055 11.8963 38.0045 11.9048 38.0036 11.9153C38.0026 11.9258 38.0015 11.9393 38.0006 11.9551C37.9997 11.9709 37.999 11.9897 37.999 12.0108L38.999 12.0117L39.999 12.0127C39.999 12.0328 39.9984 12.0505 39.9975 12.0654C39.9967 12.0802 39.9957 12.0928 39.9948 12.1023C39.9939 12.1118 39.9931 12.1193 39.9925 12.1236C39.9921 12.1275 39.9917 12.1308 39.9918 12.1297C39.9918 12.1296 39.992 12.1284 39.9922 12.127C39.9923 12.1255 39.9926 12.1232 39.9929 12.1205C39.9936 12.1151 39.9945 12.1065 39.9955 12.096C39.9965 12.0854 39.9976 12.0717 39.9985 12.0559C39.9993 12.04 40 12.0212 40 12H39ZM38.999 12.0117L38.9564 13.0108C44.5433 13.2494 49 17.8541 49 23.5H50H51C51 16.7778 45.6942 11.2967 39.0417 11.0126L38.999 12.0117ZM50 23.5H49C49 26.1966 47.9827 28.6521 46.3109 30.5122L47.0547 31.1807L47.7984 31.8491C49.7865 29.6371 51 26.7103 51 23.5H50ZM47.0547 31.1807H48.0547V27.6299H47.0547H46.0547V31.1807H47.0547ZM47.0547 27.6299L47.9549 28.0654C48.6229 26.6846 49 25.1358 49 23.5H48H47C47 24.8253 46.6951 26.0771 46.1545 27.1944L47.0547 27.6299ZM48 23.5H49C49 17.8544 44.5437 13.2494 38.9568 13.0107L38.9141 14.0098L38.8714 15.0089C43.3925 15.2021 47 18.9303 47 23.5H48ZM38.9141 14.0098L38.9567 13.0107C38.4208 12.9878 37.9985 12.5465 37.999 12.0107L36.999 12.0098L35.999 12.0088C35.9975 13.6173 37.265 14.9403 38.8714 15.0089L38.9141 14.0098ZM36.999 12.0098L37.999 12.0107C37.999 12.0064 37.999 12.0025 37.999 11.9998C37.999 11.9985 37.999 11.9972 37.999 11.9962C37.999 11.9952 37.999 11.9946 37.999 11.994C37.999 11.9912 37.999 11.9939 37.9989 11.9984L36.999 11.9854L35.9991 11.9723C35.9989 11.9848 35.999 11.9955 35.999 12.0008C35.999 12.0023 35.999 12.0037 35.999 12.0047C35.999 12.0058 35.999 12.0066 35.999 12.0073C35.999 12.0087 35.999 12.009 35.999 12.0088L36.999 12.0098ZM36.999 11.9854L37.999 11.9839C37.9903 5.91629 33.0699 1 27 1V2V3C31.966 3 35.9919 7.02219 35.999 11.9868L36.999 11.9854ZM27 2V1C22.3516 1 18.3761 3.88549 16.7661 7.96703L17.6963 8.33398L18.6265 8.70094C19.9455 5.35739 23.2005 3 27 3V2ZM17.6963 8.33398L16.7661 7.96681C16.6663 8.21977 16.4672 8.42139 16.2148 8.5248L16.5938 9.4502L16.9727 10.3756C17.7286 10.066 18.3262 9.46169 18.6264 8.70116L17.6963 8.33398ZM16.5938 9.4502L16.2148 8.52478C15.9623 8.62818 15.6787 8.62405 15.43 8.51369L15.0244 9.42773L14.6188 10.3418C15.3663 10.6735 16.2166 10.6852 16.9727 10.3756L16.5938 9.4502ZM15.0244 9.42773L15.43 8.51366C14.6876 8.1843 13.8665 8 13 8V9V10C13.5798 10 14.1252 10.1228 14.6189 10.3418L15.0244 9.42773ZM13 9V8C9.68629 8 7 10.6863 7 14H8H9C9 11.7909 10.7909 10 13 10V9ZM8 14H7C7 14.5163 7.06542 15.0163 7.18749 15.4931L8.15625 15.2451L9.12501 14.9971C9.04382 14.68 9 14.3465 9 14H8ZM8.15625 15.2451L7.18749 15.4931C7.31137 15.977 7.05922 16.4782 6.59717 16.6671L6.97559 17.5928L7.354 18.5184C8.74077 17.9515 9.49649 16.4482 9.12501 14.9971L8.15625 15.2451ZM6.97559 17.5928L6.59716 16.6671C3.31152 18.0104 1 21.2362 1 25H2H3C3 22.0758 4.79461 19.5648 7.35402 18.5184L6.97559 17.5928ZM2 25H1C1 29.9706 5.02944 34 10 34V33V32C6.13401 32 3 28.866 3 25H2ZM10 33V34H38.7998V33V32H10V33ZM38.7998 33L38.8992 33.995C38.9147 33.9935 38.929 33.9919 38.9388 33.9908C38.9502 33.9896 38.9558 33.9889 38.9616 33.9883C38.9726 33.9872 38.9681 33.9879 38.957 33.9883L38.9141 32.9893L38.8711 31.9902C38.8215 31.9923 38.7789 31.9965 38.7518 31.9993C38.7057 32.0042 38.7238 32.0026 38.7004 32.005L38.7998 33ZM38.9141 32.9893L38.9568 33.9883C39.0001 33.9865 39.0393 33.9834 39.0633 33.9815C39.0924 33.9792 39.1022 33.9784 39.1121 33.9778L39.0547 32.9795L38.9973 31.9811C38.8414 31.9901 38.9506 31.9868 38.8713 31.9902L38.9141 32.9893ZM39.0547 32.9795H38.0547V34.9834H39.0547H40.0547V32.9795H39.0547ZM39.0547 34.9834L39.0072 33.9845C38.9903 33.9853 38.9757 33.9863 38.9653 33.9871C38.9556 33.9879 38.9463 33.9887 38.9431 33.9889C38.9382 33.9894 38.9387 33.9893 38.9404 33.9892C38.9425 33.989 38.9486 33.9886 38.9573 33.9882L39 34.9873L39.0427 35.9864C39.0605 35.9856 39.0758 35.9846 39.087 35.9838C39.0978 35.983 39.1074 35.9822 39.1116 35.9818C39.1175 35.9813 39.1174 35.9813 39.1167 35.9814C39.1154 35.9815 39.11 35.9819 39.1021 35.9823L39.0547 34.9834ZM39 34.9873H38V35H39H40V34.9873H39ZM39 35V34H10V35V36H39V35ZM10 35V34C5.02944 34 1 29.9706 1 25H0H-1C-1 31.0751 3.92487 36 10 36V35ZM0 25H1C1 21.2357 3.31192 18.0099 6.59717 16.6668L6.21875 15.7412L5.84033 14.8156C1.82973 16.4552 -1 20.3951 -1 25H0ZM6.21875 15.7412L7.18751 15.4932C7.06542 15.0163 7 14.5163 7 14H6H5C5 14.686 5.08702 15.3526 5.24999 15.9892L6.21875 15.7412ZM6 14H7C7 10.6863 9.68629 8 13 8V7V6C8.58172 6 5 9.58172 5 14H6ZM13 7V8C13.8664 8 14.6878 8.18416 15.4303 8.51366L15.8359 7.59961L16.2415 6.68556C15.25 6.24559 14.1529 6 13 6V7ZM15.8359 7.59961L16.7662 7.96657C18.3761 3.88539 22.3513 1 27 1V0V-1C21.5016 -1 16.8065 2.4142 14.9057 7.23265L15.8359 7.59961Z" fill="#FB6060" mask="url(#path-1-inside-1_8_30)"/>
</g>
<g id="Clock">
<circle id="Ellipse 5" cx="25.6967" cy="21.3137" r="7.15" transform="rotate(45 25.6967 21.3137)" stroke="#FB6060" stroke-width="1.7"/>
<path id="Vector 2" d="M25 19.0901V22.0901L28 23.5901" stroke="#FB6060" stroke-width="1.7" stroke-linecap="round" stroke-linejoin="round"/>
</g>
</g>
<g id="Warning">
<path id="Vector 3" d="M43 28V33" stroke="#FB6060" stroke-width="2" stroke-linecap="round" stroke-linejoin="round"/>
<circle id="Ellipse 6" cx="43" cy="36" r="1" fill="#FB6060"/>
</g>
</g>
</svg>
