<svg width="55" height="55" viewBox="0 0 55 55" fill="none" xmlns="http://www.w3.org/2000/svg">
<circle cx="27.5" cy="27.5" r="27.5" fill="#8A8A8A"/>
<circle cx="27.5" cy="27.5" r="24.5" stroke="black" stroke-opacity="0.3" stroke-width="6"/>
<circle cx="27.5" cy="27.5" r="26.55" stroke="#C2C2C2" stroke-width="1.9"/>
<path d="M36.4602 22.0057L35.5909 24.9716H19.0227L19.892 22.0057H36.4602ZM28.6875 42L19.3295 30.5455L19.2784 28.3977H23.9318C25.142 28.3977 26.1733 28.2273 27.0256 27.8864C27.8778 27.5369 28.5298 27.017 28.9815 26.3267C29.4332 25.6278 29.6591 24.75 29.6591 23.6932C29.6591 22.1335 29.1903 20.9105 28.2528 20.0241C27.3153 19.1293 25.875 18.6818 23.9318 18.6818H19.0227L19.892 15.8182H23.9318C26.0114 15.8182 27.7159 16.1634 29.0455 16.8537C30.3835 17.5355 31.3722 18.473 32.0114 19.6662C32.6591 20.8509 32.983 22.1932 32.983 23.6932C32.983 25.0483 32.6847 26.2969 32.0881 27.4389C31.5 28.5724 30.554 29.4844 29.25 30.1747C27.9545 30.8651 26.2415 31.2102 24.1108 31.2102H24.0341L32.6761 41.7955V42H28.6875ZM36.4602 15.8182L35.5909 18.7841L22.5511 18.6818L23.4205 15.8182H36.4602Z" fill="#F3F3F3"/>
</svg>
